<svg width="128" height="128" viewBox="0 0 128 128" fill="none" xmlns="http://www.w3.org/2000/svg">
<path d="M19.0372 113.876L9.03223 1.66101H118.968L108.952 113.859L63.9332 126.339L19.0372 113.876Z" fill="#E44D26"/>
<path d="M64 116.8L100.378 106.714L108.937 10.8361H64V116.8Z" fill="#F16529"/>
<path d="M63.9998 52.455H45.7878L44.5298 38.361H63.9998V24.599H29.4888L29.8188 28.291L33.2008 66.218H63.9998V52.455ZM63.9998 88.198L63.9388 88.215L48.6118 84.075L47.6328 73.1H33.8158L35.7438 94.709L63.9368 102.535L63.9998 102.518V88.198Z" fill="#EBEBEB"/>
<path d="M63.9521 52.455V66.218H80.8992L79.3022 84.067L63.9521 88.21V102.529L92.1671 94.709L92.3741 92.384L95.6082 56.151L95.9431 52.455H92.2351H63.9521ZM63.9521 24.599V38.361H97.1961L97.4721 35.269L98.1001 28.291L98.4291 24.599H63.9521Z" fill="white"/>
</svg>
