<svg width="128" height="128" viewBox="0 0 128 128" fill="none" xmlns="http://www.w3.org/2000/svg">
<g clip-path="url(#clip0_14_85)">
<path d="M12.5 0H115.5C122.425 0 128 5.575 128 12.5V115.5C128 122.425 122.425 128 115.5 128H12.5C5.575 128 0 122.425 0 115.5V12.5C0 5.575 5.575 0 12.5 0Z" fill="url(#paint0_linear_14_85)"/>
<path d="M78.3201 16.64H105.36C108.684 16.64 111.36 19.316 111.36 22.64V66.64C111.36 69.964 108.684 72.64 105.36 72.64H78.3201C74.9961 72.64 72.3201 69.964 72.3201 66.64V22.64C72.3201 19.316 74.9961 16.64 78.3201 16.64ZM22.6401 16.64H49.6801C53.0041 16.64 55.6801 19.316 55.6801 22.64V98.64C55.6801 101.964 53.0041 104.64 49.6801 104.64H22.6401C19.3161 104.64 16.6401 101.964 16.6401 98.64V22.64C16.6401 19.316 19.3161 16.64 22.6401 16.64Z" fill="white"/>
</g>
<defs>
<linearGradient id="paint0_linear_14_85" x1="64" y1="0" x2="64" y2="128" gradientUnits="userSpaceOnUse">
<stop stop-color="#2684FF"/>
<stop offset="1" stop-color="#0052CC"/>
</linearGradient>
<clipPath id="clip0_14_85">
<rect width="128" height="128" fill="white"/>
</clipPath>
</defs>
</svg>
